<svg width="919" height="269" viewBox="0 0 919 269" fill="none" xmlns="http://www.w3.org/2000/svg">
<path d="M865.826 220.475C853.976 220.475 843.401 218.075 834.101 213.275C824.951 208.325 817.751 201.5 812.501 192.8C807.251 184.1 804.626 174.275 804.626 163.325C804.626 152.375 807.176 142.625 812.276 134.075C817.526 125.375 824.576 118.55 833.426 113.6C842.276 108.65 852.251 106.175 863.351 106.175C874.151 106.175 883.676 108.5 891.926 113.15C900.176 117.8 906.626 124.25 911.276 132.5C916.076 140.75 918.476 150.2 918.476 160.85C918.476 162.8 918.326 164.9 918.026 167.15C917.876 169.25 917.501 171.725 916.901 174.575L822.626 174.8V151.175L902.276 150.95L887.426 160.85C887.276 154.55 886.301 149.375 884.501 145.325C882.701 141.125 880.001 137.975 876.401 135.875C872.951 133.625 868.676 132.5 863.576 132.5C858.176 132.5 853.451 133.775 849.401 136.325C845.501 138.725 842.426 142.175 840.176 146.675C838.076 151.175 837.026 156.65 837.026 163.1C837.026 169.55 838.151 175.1 840.401 179.75C842.801 184.25 846.101 187.775 850.301 190.325C854.651 192.725 859.751 193.925 865.601 193.925C871.001 193.925 875.876 193.025 880.226 191.225C884.576 189.275 888.401 186.425 891.701 182.675L910.601 201.575C905.201 207.875 898.676 212.6 891.026 215.75C883.376 218.9 874.976 220.475 865.826 220.475Z" fill="white"/>
<path d="M615.39 218V108.65H649.815V218H615.39ZM685.365 218V154.1C685.365 148.55 683.64 144.275 680.19 141.275C676.89 138.125 672.765 136.55 667.815 136.55C664.365 136.55 661.29 137.3 658.59 138.8C655.89 140.15 653.715 142.1 652.065 144.65C650.565 147.2 649.815 150.35 649.815 154.1L636.54 148.25C636.54 139.55 638.415 132.125 642.165 125.975C645.915 119.675 651.015 114.875 657.465 111.575C663.915 108.125 671.19 106.4 679.29 106.4C686.94 106.4 693.765 108.125 699.765 111.575C705.915 115.025 710.79 119.825 714.39 125.975C717.99 132.125 719.79 139.475 719.79 148.025V218H685.365ZM755.34 218V154.1C755.34 148.55 753.615 144.275 750.165 141.275C746.865 138.125 742.74 136.55 737.79 136.55C734.34 136.55 731.265 137.3 728.565 138.8C725.865 140.15 723.69 142.1 722.04 144.65C720.54 147.2 719.79 150.35 719.79 154.1L699.99 151.4C700.29 142.1 702.465 134.15 706.515 127.55C710.715 120.8 716.19 115.625 722.94 112.025C729.84 108.275 737.565 106.4 746.115 106.4C754.515 106.4 761.94 108.2 768.39 111.8C774.99 115.25 780.165 120.275 783.915 126.875C787.815 133.325 789.765 141.125 789.765 150.275V218H755.34Z" fill="white"/>
<path d="M542.701 220.475C532.651 220.475 523.726 218.45 515.926 214.4C508.276 210.2 502.276 204.5 497.926 197.3C493.576 189.95 491.401 181.55 491.401 172.1V108.65H525.826V171.65C525.826 175.4 526.426 178.625 527.626 181.325C528.976 184.025 530.926 186.125 533.476 187.625C536.026 189.125 539.101 189.875 542.701 189.875C547.801 189.875 551.851 188.3 554.851 185.15C557.851 181.85 559.351 177.35 559.351 171.65V108.65H593.776V171.875C593.776 181.475 591.601 189.95 587.251 197.3C582.901 204.5 576.901 210.2 569.251 214.4C561.601 218.45 552.751 220.475 542.701 220.475Z" fill="white"/>
<path d="M435.434 218V54.65H469.859V218H435.434Z" fill="white"/>
<path d="M324.3 160.175V132.725H358.5C362.85 132.725 366.825 131.825 370.425 130.025C374.025 128.225 376.875 125.6 378.975 122.15C381.075 118.7 382.125 114.5 382.125 109.55C382.125 104.75 381.075 100.625 378.975 97.175C376.875 93.725 374.025 91.1 370.425 89.3C366.825 87.5 362.85 86.6 358.5 86.6H324.3V59.15H363.675C373.725 59.15 382.8 61.175 390.9 65.225C399 69.275 405.375 75.125 410.025 82.775C414.825 90.275 417.225 99.2 417.225 109.55C417.225 119.9 414.825 128.9 410.025 136.55C405.375 144.05 399 149.9 390.9 154.1C382.8 158.15 373.725 160.175 363.675 160.175H324.3ZM297.3 218V59.15H332.625V218H297.3Z" fill="white"/>
<path fill-rule="evenodd" clip-rule="evenodd" d="M194.268 40.7782C180.094 48.6568 167.176 58.7336 157.76 70.4622L156.788 71.6954C153.402 76.0683 151.24 81.0521 149.838 86.1172C146.649 85.9731 143.884 86.9639 141.827 88.1784C139.428 89.5949 137.686 91.4661 136.572 92.8149C135.406 94.2261 134.432 95.6859 133.77 96.6958C133.381 97.2889 133.167 97.6214 132.902 98.0196C132.788 98.1908 132.702 98.3193 132.633 98.4166C132.571 98.5056 132.541 98.5455 132.538 98.5496C132.156 99.0435 131.776 99.5401 131.399 100.038L130.754 100.895C117.271 118.924 106.936 139.808 102.388 162.425L102.381 162.457L102.375 162.489L102.208 163.358C101.405 167.639 100.817 171.95 100.441 176.274C99.7896 183.77 99.7791 191.307 100.412 198.804L100.412 198.804C100.819 203.626 101.491 208.432 102.429 213.198L102.427 213.199C102.537 213.764 103.313 218.375 104.796 221.862C105.204 222.819 105.855 224.169 106.858 225.493C107.725 226.637 109.705 228.894 113.091 229.898C110.793 235.096 108.584 240.322 106.474 245.574C105.896 247.009 104.009 251.28 102.741 254.738C102.101 256.48 101.451 258.438 100.969 260.405L0.0334471 203.063V141.799L0 141.78L0.0334471 141.764V141.654L0.137884 141.713L21.1631 131.453L0.0334471 119.449V58.1847L0 58.1663L0.0334471 58.1499V58.0394L0.137884 58.0988L119.204 0L194.268 40.7782ZM10.5181 196.968L95.2893 245.127C96.0045 243.414 96.5921 242.048 96.7453 241.668C97.8213 238.99 98.9217 236.32 100.046 233.658C99.3821 232.945 98.8701 232.306 98.5002 231.818C96.7743 229.541 95.7287 227.326 95.1473 225.96C94.0671 223.421 93.3418 220.737 92.8941 218.848C92.6593 217.857 92.4776 216.983 92.3474 216.321C92.282 215.988 92.2295 215.708 92.1904 215.497C92.1716 215.395 92.1543 215.301 92.1439 215.245C92.1399 215.223 92.137 215.208 92.1351 215.197L91.0709 209.725L91.1576 209.637C90.93 208.175 90.7257 206.71 90.5439 205.243L10.5181 159.681V196.968ZM10.5181 113.353L92.2286 159.773C94.5908 148.276 98.3262 137.248 103.116 126.81L101.314 127.762L10.5181 76.0659V113.353Z" fill="white"/>
<path d="M248.101 33.1635C251.384 32.5944 257.462 31.9582 259.446 35.5009C261.682 39.4933 258.752 85.8764 257.899 93.7573C257.49 97.541 257.139 104.149 253.761 106.727C245.047 113.377 232.174 116.068 222.377 121.226C227.314 120.805 248.214 119.714 251.633 121.301C252.769 124.064 250.684 127.428 249.733 129.969C244.842 143.048 238.6 157.008 229.981 168.113C224.028 175.787 213.341 173.817 204.491 174.527C195.166 175.237 185.854 176.124 176.562 177.187C188.452 180.288 200.599 181.343 212.635 183.561C221.072 185.107 210.483 192.35 207.644 195.041C186.814 214.783 165.76 222.442 139.097 231.309C133.766 240.617 130.757 251.101 124.13 259.757C122.323 262.118 113.725 271.963 110.621 267.23C110.047 262.866 114.412 253.73 116.136 249.441C133.52 206.186 157.701 164.516 184.92 126.572C199.037 107.388 214.474 89.3588 229.158 70.6435C212.81 83.6137 197.163 98.5433 183.298 114.149C155.652 145.268 137.886 181.888 118.357 218.064C114.947 224.36 113.063 213.354 112.648 211.22C109.608 195.787 109.59 179.913 112.595 164.468C116.973 142.697 127.222 122.42 140.779 104.896C142.754 102.343 145.926 95.6193 150.025 96.5873C152.309 99.0145 156.268 124.266 156.871 129.471C158.447 114.198 154.962 91.0459 165.027 78.0451C183.479 54.2101 219.061 36.9677 248.101 33.1635Z" fill="white"/>
</svg>
